<svg width="24" height="24" fill="none" xmlns="http://www.w3.org/2000/svg"><path d="M8.414 18.414a2 2 0 1 0-2.828-2.828 2 2 0 0 0 2.828 2.828ZM18.414 18.414a2 2 0 1 0-2.828-2.828 2 2 0 0 0 2.828 2.828Z" stroke="#000"/><path d="M13 16V6a1 1 0 0 0-1-1H4a1 1 0 0 0-1 1v10a1 1 0 0 0 1 1h1m8-1a1 1 0 0 1-1 1H9m4-1V8a1 1 0 0 1 1-1h2.586a1 1 0 0 1 .707.293l3.414 3.414a1 1 0 0 1 .293.707V16a1 1 0 0 1-1 1h-1m-6-1a1 1 0 0 0 1 1h1M5 17a2 2 0 0 0 4 0m-4 0a2 2 0 0 1 4 0m10 0a2 2 0 0 1-4 0m4 0a2 2 0 0 0-4 0" stroke="#000" stroke-width="2" stroke-linecap="round" stroke-linejoin="round"/></svg>