<svg width="24" height="24" fill="none" xmlns="http://www.w3.org/2000/svg"><path d="M4.586 4.586A2 2 0 0 0 4 6v2a2 2 0 0 0 2 2h2a2 2 0 0 0 2-2V6a2 2 0 0 0-2-2H6a2 2 0 0 0-1.414.586ZM14.586 4.586A2 2 0 0 0 14 6v2a2 2 0 0 0 2 2h2a2 2 0 0 0 2-2V6a2 2 0 0 0-2-2h-2a2 2 0 0 0-1.414.586ZM4.586 14.586A2 2 0 0 0 4 16v2a2 2 0 0 0 2 2h2a2 2 0 0 0 2-2v-2a2 2 0 0 0-2-2H6a2 2 0 0 0-1.414.586ZM14.586 14.586A2 2 0 0 0 14 16v2a2 2 0 0 0 2 2h2a2 2 0 0 0 2-2v-2a2 2 0 0 0-2-2h-2a2 2 0 0 0-1.414.586Z" stroke="#000" stroke-width="2" stroke-linecap="round" stroke-linejoin="round"/></svg>